<svg version="1.1" id="Layer_1" xmlns="http://www.w3.org/2000/svg" xmlns:xlink="http://www.w3.org/1999/xlink" x="0px" y="0px"
	 width="100%" viewBox="0 0 288 288" enable-background="new 0 0 288 288" xml:space="preserve">
<path fill="#000000" opacity="1.000000" stroke="#ffffff" stroke-width="2" 
	d="
M153.399994,287.000000 
	C147.215302,286.847443 144.591064,286.079102 142.207764,284.943726 
	C117.338158,273.096130 94.342918,258.571167 75.877563,237.774094 
	C56.529858,215.983185 46.005238,190.026855 40.710064,161.703629 
	C36.935883,141.515991 36.200016,121.077141 35.971806,100.618851 
	C35.888363,93.138504 36.534111,85.652512 36.624214,78.166405 
	C36.656715,75.466125 37.586529,73.970718 40.077656,72.849243 
	C74.343346,57.423241 110.066620,46.462833 146.591263,37.954628 
	C152.359039,36.611050 157.828308,38.821663 163.257477,40.138714 
	C196.769592,48.268345 229.672989,58.276394 261.156586,72.567192 
	C263.439819,73.603577 265.228302,74.523842 265.262756,77.440399 
	C265.645874,109.880562 266.056854,142.226334 257.900696,174.117004 
	C247.120529,216.267380 222.705780,247.770996 185.881912,270.192596 
	C176.628662,275.826782 167.187164,281.100494 157.317490,285.590179 
	C155.820435,286.271179 154.209259,286.861603 149.141296,288.697937 
	C151.933334,289.000000 150.866653,289.000000 149.399994,289.000000 
M76.542053,207.987366 
	C93.739388,235.559158 118.521301,253.908981 147.864319,266.753693 
	C150.087677,267.726929 152.013199,267.578796 154.034470,266.501495 
	C160.494354,263.058502 167.084976,259.839905 173.399750,256.149109 
	C207.339432,236.312424 230.275040,208.114136 239.414230,169.326584 
	C245.248215,144.566650 246.961517,119.479263 246.793167,94.135597 
	C246.758621,88.932190 245.034454,86.355888 240.344696,84.503876 
	C216.653030,75.147926 192.307388,67.939743 167.792206,61.109119 
	C155.680283,57.734398 144.095062,57.051334 132.278656,61.370903 
	C131.035828,61.825226 129.719757,62.079899 128.436447,62.422665 
	C105.279686,68.607697 82.553307,76.064392 60.508743,85.514381 
	C58.144711,86.527794 55.322277,87.155861 55.234158,90.694878 
	C55.060196,97.681602 54.141796,104.707481 54.628422,111.640144 
	C55.465382,123.563774 55.579697,135.526093 57.232365,147.421494 
	C60.163540,168.519180 65.316338,188.814407 76.542053,207.987366 
z"/>
<path fill="#000000" opacity="1.000000" stroke="#ffffff" stroke-width="2" 
	d="
M91.419098,108.006851 
	C98.482727,100.311516 111.412735,99.529305 118.287285,106.164566 
	C119.625717,107.456429 120.763054,107.350998 122.316635,106.967171 
	C147.269531,100.802223 171.147537,104.746925 194.354874,114.756813 
	C196.701401,115.768929 198.436737,116.263161 201.023376,114.290977 
	C205.506775,110.872566 210.675690,112.759224 215.273499,114.722816 
	C219.200653,116.399994 220.813110,119.950630 220.309677,124.171143 
	C219.722763,129.091553 221.209778,132.783737 225.453018,135.610352 
	C230.282547,138.827499 229.982834,143.975143 229.009766,148.731384 
	C228.132919,153.017242 224.288788,152.625183 220.345444,151.761734 
	C220.345444,163.329468 219.278366,174.417297 220.615021,185.207352 
	C222.292892,198.751953 212.726791,205.538635 205.994049,214.222366 
	C204.988770,215.518936 203.318863,215.564072 201.826340,215.023941 
	C199.929474,214.337524 199.688309,212.647461 199.681549,210.915649 
	C199.649750,202.749725 199.716537,194.582291 199.580750,186.418182 
	C199.432785,177.523514 199.100693,177.230759 190.329483,175.335587 
	C166.592178,170.206726 143.731277,174.459335 121.137367,181.736328 
	C118.494881,182.587418 118.195923,184.462982 118.208443,186.797836 
	C118.263832,197.130219 118.256577,207.463074 118.235909,217.795685 
	C118.229927,220.782715 118.565880,224.062836 115.314117,225.730301 
	C111.924629,227.468414 109.188286,225.468613 106.674164,223.507690 
	C100.074287,218.359909 93.630959,213.041489 90.858589,204.674240 
	C90.578743,203.829636 90.291473,203.231125 89.272797,203.084732 
	C81.917801,202.027786 82.106544,195.905411 81.159897,190.690308 
	C80.288315,185.888687 82.088074,182.100418 86.539627,179.972260 
	C90.070091,178.284454 90.989586,175.653961 90.920776,171.933197 
	C90.727890,161.502838 90.853561,151.066605 90.853561,140.455704 
	C87.806068,140.821350 86.252335,142.746094 84.269470,143.844986 
	C77.926331,147.360382 73.260651,144.586700 72.562775,137.471039 
	C71.865723,130.363800 73.943298,125.244125 80.992546,123.194275 
	C88.620613,120.976112 91.950150,116.167633 91.419098,108.006851 
M160.887680,156.166275 
	C164.832916,155.438736 168.805496,155.933029 172.613144,156.117172 
	C174.171738,154.344101 173.442078,152.408722 173.694946,150.648483 
	C174.017761,148.401382 174.648865,146.299301 177.231323,145.812943 
	C180.046188,145.282837 181.456207,147.107590 182.592712,149.327576 
	C183.394318,150.893372 183.426453,152.556305 183.328506,154.206192 
	C183.182724,156.661453 184.376266,157.916977 186.633163,158.416855 
	C189.713120,159.099045 192.785828,159.815125 195.872421,160.465622 
	C198.355453,160.988922 199.693359,160.107452 199.647171,157.388687 
	C199.584930,153.725250 199.126068,149.968109 199.756454,146.414185 
	C201.091599,138.886963 197.281097,135.611862 191.022171,132.630264 
	C169.145782,122.208916 146.661194,120.733238 123.460159,126.734566 
	C121.183281,127.323524 118.269531,127.528893 118.274414,131.069519 
	C118.289299,141.858505 118.279800,152.647537 118.279800,163.235397 
	C120.123985,164.078918 121.246239,162.998703 122.514595,162.802994 
	C130.892273,161.510376 136.742737,158.432114 134.889618,148.166458 
	C134.361313,145.239807 136.490967,142.218353 140.052704,141.852539 
	C143.608902,141.487289 145.265854,143.895340 146.467545,146.980148 
	C147.698395,150.139832 146.668365,153.583679 147.882339,156.897888 
	C152.042816,156.708191 156.016739,156.526993 160.887680,156.166275 
z"/>
</svg>